<?xml version="1.0" encoding="utf-8"?>
<!-- Generator: Adobe Illustrator 19.2.1, SVG Export Plug-In . SVG Version: 6.00 Build 0)  -->
<svg version="1.1" id="Layer_1" xmlns="http://www.w3.org/2000/svg" xmlns:xlink="http://www.w3.org/1999/xlink" x="0px" y="0px"
	 viewBox="15 65 267.6 292" style="enable-background:new 0 0 297.6 420.9;" xml:space="preserve">
<g>
	<rect x="142.5" y="156.2" width="32.9" height="11.9"/>
	<rect x="182.4" y="156.2" width="16.4" height="11.9"/>
	<rect x="142.5" y="177.7" width="65.7" height="11.9"/>
	<rect x="142.5" y="199.3" width="65.7" height="11.9"/>
	<path d="M59.7,64.1v204.2l-44.1,44.1l31,31l13.1-13.1v25.8h152.3l69.6-69V64.1H59.7z M46.5,326.7l-14.2-14.2l27.3-27.3l0,0l5.9-5.9
		L99,245.8l14.2,14.2l-41.8,41.8l-11.8,11.8L46.5,326.7z M215.7,335.1v-44.8h44.8L215.7,335.1z M269.1,278.5h-65.9v65.2H71.5v-25.2
		L130,260l-11.3-11.3l13.3-13.3c12.5,10.5,27.9,15.8,43.3,15.8c17.3,0,34.5-6.6,47.7-19.8c26.3-26.3,26.3-69.1,0-95.4
		c-13.2-13.2-30.4-19.8-47.7-19.8c-17.3,0-34.5,6.6-47.7,19.8c-24.9,24.9-26.3,64.5-4,91l-13.3,13.3L99,229l-27.6,27.6v-180h197.6
		V278.5z M119.7,183.7c0-14.8,5.8-28.8,16.3-39.3c10.5-10.5,24.5-16.3,39.3-16.3c14.8,0,28.8,5.8,39.3,16.3
		c10.5,10.5,16.3,24.5,16.3,39.3c0,14.8-5.8,28.8-16.3,39.3c-10.5,10.5-24.5,16.3-39.3,16.3c-14.8,0-28.8-5.8-39.3-16.3
		C125.5,212.5,119.7,198.5,119.7,183.7z"/>
</g>
</svg>
