<svg xmlns="http://www.w3.org/2000/svg" width="100" height="100" viewBox="0 0 100 100"><path fill="#979797" d="M54.6 89.2h-9.2V99h9.2v-9.8zm-9.2-78.4h9.2V1h-9.2v9.8zm9.2 44.1h-9.2v-9.8h9.2v9.8zM99 66.08c-3.54-8.3-11.48-9.5-16.45-12.97-2.37-1.65-3.34-4.97-3.7-7.74-2.36.26-6.26.3-8.12-4.76-1.47-3.97-.86-10.55-5.76-16.13-4.45-5.07-9.94-6.74-14.97-6.36 6.17 4.4 3.74 11.03-.74 11.03-6.23 0-7.98-8-17.1-8-2.08 0-3.92.7-5.07 1.5 5.1.7 6.32 5.16 7.92 9.2 1.27 3.22 3.53 5.1 6.86 6.07-.6.36-2.04.82-3.9.82-4.02 0-6.82-2.26-9.7-5.43-2.55-2.8-5.38-5.45-10.13-5.45-2.34 0-4.12.8-4.74 1.23 2.6.44 6.46 2.1 6.46 5.04 0 2.52-2.6 3.48-4.74 1.07-2.38-2.7-5.72-4.72-9.54-4.72-1.9 0-3.78.65-4.58 1.48 4.53.56 7.2 3.66 10.02 10.58 1.58 3.9 3.83 7.6 9.5 7.66 2.6.04 6.26-1.27 8.4.93 2.05 2.08 1.37 4.82 2.3 7.04 1.17 2.8 3.6 4.22 8.36 4.5-3.95 3.5-13.37 1.4-16.58-2.2.42 9 7.08 17.08 20.3 13.28 2.3-.66 3.93-.3 4.8 2.2 1.23 3.4 4.1 3.96 6.82 3.6 6.2-.82 9.9.52 13.47 5.07.77-7.54-4.28-11.97-7.45-14.08-3.03-2.02-3.32-4.12-3.36-5.74 2.18 2.67 5.03 3.8 8 4.24 5.12.77 8.8 2.3 10.75 5.23.56-8.3-7.6-10.16-8.6-13.64 2.57 1.78 4.46 2.43 7.13 2.2 3.57-.27 7.9-3.26 11.1 2.58 4.08-2.8 9.43-1.8 13.02.68"/></svg>