<?xml version="1.0" encoding="utf-8"?>
<!-- Generator: Adobe Illustrator 18.1.1, SVG Export Plug-In . SVG Version: 6.00 Build 0)  -->
<svg version="1.1" id="Layer_1" xmlns="http://www.w3.org/2000/svg" xmlns:xlink="http://www.w3.org/1999/xlink" x="0px" y="0px"
	 viewBox="0 0 19 27" enable-background="new 0 0 19 27" xml:space="preserve">
<path fill="#FFFFFF" d="M3.1,21.3c-1.4,0.5-2.3,1.2-3.1,2.1c2.6,2.2,5.9,3.5,9.5,3.5c3.6,0,6.9-1.3,9.5-3.5
	c-0.8-0.8-1.7-1.6-3.1-2.1c-1.1-0.4-3.5-1-3.5-3.5c0-1.2,5.8-3.4,5.8-9c0-4.8-3.9-8.8-8.8-8.8S0.7,4,0.7,8.8c0,5.5,5.8,7.8,5.8,9
	C6.6,20.3,4.2,20.9,3.1,21.3z"/>
</svg>
